<svg xmlns="http://www.w3.org/2000/svg" viewBox="0 0 800 600">
  <!-- 背景元素 -->
  <!-- 天空 -->
  <rect x="0" y="0" width="800" height="350" fill="none" stroke="#000000" stroke-width="2" />
  
  <!-- 太陽 -->
  <circle cx="700" cy="80" r="40" fill="none" stroke="#000000" stroke-width="2" />
  <line x1="700" y1="20" x2="700" y2="0" stroke="#000000" stroke-width="2" />
  <line x1="700" y1="140" x2="700" y2="160" stroke="#000000" stroke-width="2" />
  <line x1="640" y1="80" x2="620" y2="80" stroke="#000000" stroke-width="2" />
  <line x1="760" y1="80" x2="780" y2="80" stroke="#000000" stroke-width="2" />
  <line x1="655" y1="35" x2="640" y2="20" stroke="#000000" stroke-width="2" />
  <line x1="745" y1="35" x2="760" y2="20" stroke="#000000" stroke-width="2" />
  <line x1="655" y1="125" x2="640" y2="140" stroke="#000000" stroke-width="2" />
  <line x1="745" y1="125" x2="760" y2="140" stroke="#000000" stroke-width="2" />
  
  <!-- 雲朵 -->
  <path d="M100,100 C120,80 150,80 170,100 C190,80 220,80 240,100 C240,120 190,140 170,120 C150,140 100,120 100,100 Z" fill="none" stroke="#000000" stroke-width="2" />
  <path d="M500,140 C520,120 550,120 570,140 C590,120 620,120 640,140 C640,160 590,180 570,160 C550,180 500,160 500,140 Z" fill="none" stroke="#000000" stroke-width="2" />
  
  <!-- 地面 -->
  <rect x="0" y="350" width="800" height="250" fill="none" stroke="#000000" stroke-width="2" />
  
  <!-- 道路 -->
  <rect x="0" y="400" width="800" height="100" fill="none" stroke="#000000" stroke-width="2" />
  <line x1="50" y1="450" x2="150" y2="450" stroke="#000000" stroke-width="3" stroke-dasharray="20,20" />
  <line x1="200" y1="450" x2="300" y2="450" stroke="#000000" stroke-width="3" stroke-dasharray="20,20" />
  <line x1="350" y1="450" x2="450" y2="450" stroke="#000000" stroke-width="3" stroke-dasharray="20,20" />
  <line x1="500" y1="450" x2="600" y2="450" stroke="#000000" stroke-width="3" stroke-dasharray="20,20" />
  <line x1="650" y1="450" x2="750" y2="450" stroke="#000000" stroke-width="3" stroke-dasharray="20,20" />
  
  <!-- 樹 -->
  <rect x="100" y="300" width="20" height="50" fill="none" stroke="#000000" stroke-width="2" />
  <circle cx="110" cy="270" r="30" fill="none" stroke="#000000" stroke-width="2" />
  
  <rect x="650" y="300" width="20" height="50" fill="none" stroke="#000000" stroke-width="2" />
  <circle cx="660" cy="270" r="30" fill="none" stroke="#000000" stroke-width="2" />
  
  <!-- 汽車主體 -->
  <path d="M200,400 C200,380 220,360 300,360 L450,360 C530,360 550,380 550,400 L550,440 L200,440 Z" fill="none" stroke="#000000" stroke-width="3" />
  
  <!-- 車窗 -->
  <path d="M300,360 L320,320 L450,320 L470,360 Z" fill="none" stroke="#000000" stroke-width="3" />
  <line x1="385" y1="320" x2="385" y2="360" stroke="#000000" stroke-width="3" />
  
  <!-- 車輪 -->
  <circle cx="280" cy="440" r="40" fill="none" stroke="#000000" stroke-width="3" />
  <circle cx="280" cy="440" r="25" fill="none" stroke="#000000" stroke-width="2" />
  <circle cx="280" cy="440" r="5" fill="none" stroke="#000000" stroke-width="2" />
  
  <circle cx="480" cy="440" r="40" fill="none" stroke="#000000" stroke-width="3" />
  <circle cx="480" cy="440" r="25" fill="none" stroke="#000000" stroke-width="2" />
  <circle cx="480" cy="440" r="5" fill="none" stroke="#000000" stroke-width="2" />
  
  <!-- 燈 -->
  <ellipse cx="200" cy="380" rx="10" ry="15" fill="none" stroke="#000000" stroke-width="2" />
  <ellipse cx="550" cy="380" rx="10" ry="15" fill="none" stroke="#000000" stroke-width="2" />
  
  <!-- 門把手 -->
  <line x1="340" y1="390" x2="360" y2="390" stroke="#000000" stroke-width="2" />
  <line x1="410" y1="390" x2="430" y2="390" stroke="#000000" stroke-width="2" />
  
  <!-- 保險桿 -->
  <path d="M190,410 Q200,420 200,430 L550,430 Q550,420 560,410" fill="none" stroke="#000000" stroke-width="2" />
  
  <!-- 車牌 -->
  <rect x="350" y="410" width="50" height="20" fill="none" stroke="#000000" stroke-width="2" />
</svg>